<?xml version="1.0"?>
<svg version="1.1" id="圖層_1" xmlns="http://www.w3.org/2000/svg" x="0" y="0" viewBox="0 0 100 100" xml:space="preserve"><path d="M37.793 66.215c.261-.255.555-.495.847-.731.442-.357.899-.725 1.025-1.034-.026.053-.078-.104-.388-.504-.795-1.024-1.256-1.316-1.966-1.267-.785.069-1.579.492-2.348.9-.084.045-.164.092-.247.138-.247.136-.485.278-.645.445-.062.065-.115.131-.17.198-.212.256-.385.53-.566.855l-.182.329-.114.207c-.147.258-.221.388-.273.835-.088.736.084 1.795.474 2.138.462.408 1.537.784 2.368.974l.178-.367c.238-.494.476-.973.744-1.438.169-.293.352-.581.559-.859.197-.264.414-.522.663-.771.014-.015.025-.032.041-.048z" fill="#f5e6c8"/><path d="M29.042 62.303l-.052.005c-.061.03-.226.227-.292.553a2.426 2.426 0 0 0 .288 1.699c.299.503.793.892 1.353 1.064.216.067.302.052.302.048.023-.02.132-.158.191-.231.107-.134.196-.323.298-.541.127-.27.27-.575.493-.872l-1.938-1.496c-.142-.112-.508-.261-.643-.229z" fill="#f5e6c8"/><path d="M66.09 63.731c-4.665-5.125-8.944-9.455-13.05-13.211a7.841 7.841 0 0 1-.76-.57l-1.412.579c-.386.158-.752.308-1.004.518-.337.279-.58.755-.838 1.258-.073.143-.147.287-.223.428-.786 1.45-1.523 2.813-3.042 3.83-.718.48-1.646.773-2.836.894a2.364 2.364 0 0 1-.539-.03l-.091-.016a5.966 5.966 0 0 1-.639-.146c-1.032-.293-2.242-.859-2.759-1.317l-.456-.405.142-.593c.162-.675.488-1.404.645-1.755.972-2.195 1.242-3.716 1.615-5.824.098-.552.221-1.238.637-1.85.604-.885 1.576-1.264 2.357-1.568a24.746 24.746 0 0 0 5.278-2.831l.16-.115c-.948-.536-2.027-.815-3.063-.742-1.847.127-3.226.434-4.557.733l-.066.015c-2.365.532-4.483 1.009-8.175.258-2.815 5.04-5.496 10.221-8.079 15.391 2.56 1.812 6.186 4.416 7.13 5.19l.605.501a7.41 7.41 0 0 1 .938-.57c.907-.482 1.934-1.028 3.133-1.131l.01-.001c1.796-.143 2.846.906 3.733 2.048.21.271.597.772.741 1.38l.029-.004c.149-.026.298-.057.447-.067 1.248-.087 1.977.146 2.883.915.83.704 1.424 1.983 1.28 3.156.361.034.747.127 1.161.314l.123.066c1.431.901 1.901 2 2.044 2.765.208 1.118-.115 2.329-.911 3.414l-.068.108c.025.042.053.085.07.11l.255.396c.239.176.465.354.707.53 1.083.787 1.669 1.026 2.404.466.229-.176.343-.402.366-.734.066-.903-1.42-3.287-3.309-5.683a1.058 1.058 0 0 1 1.604-1.376c.516.546 1.166 1.238 1.514 1.618 1.234 1.345 3.097 3.376 3.896 3.94.422.298 1.326.202 1.554-.027 1.008-1.009-.31-2.641-.738-3.117-.288-.321-.57-.642-.846-.964a34.04 34.04 0 0 1-.18-.193c-.725-.777-1.372-1.591-2-2.378a96.899 96.899 0 0 0-.924-1.131 1.02 1.02 0 0 1 1.569-1.307c.465.552 1.05 1.252 1.362 1.63.568.689 1.115 1.353 1.68 2.012 2.631 2.807 3.75 3.69 4.666 3.02.281-.205.428-.463.466-.813.061-.582-.146-1.877-2.099-4.186l-.61-.688a43.66 43.66 0 0 1-.302-.34 107.358 107.358 0 0 1-2.999-3.45 1.022 1.022 0 0 1 .148-1.441 1.019 1.019 0 0 1 1.422.138 140.927 140.927 0 0 0 2.948 3.4l.214.236.268.299c.153.17.3.339.441.505l.979 1.106c1.202 1.363 2.908 2.812 4.221 1.942.17-.112.293-.384.339-.746.073-.588-.07-1.41-.483-2.24a59.145 59.145 0 0 0-1.126-1.549z" fill="#f5e6c8"/><path d="M59.809 42.348c-2.183-1.666-4.411-2.121-6.618-1.349a4.898 4.898 0 0 0-.571.244c-.301.149-.595.33-.889.524-.278.184-.556.379-.839.583l-.084.06-.521.373a26.576 26.576 0 0 1-5.625 3.029c-.658.257-1.251.489-1.5.852-.171.251-.244.663-.316 1.062-.383 2.163-.686 3.871-1.758 6.286-.077.174-.2.447-.312.741a9.205 9.205 0 0 0 1.195.488l.061.02a6.984 6.984 0 0 0 .303.091 4.419 4.419 0 0 0 .24.057c.068.013.128.021.172.022.821-.084 1.446-.268 1.881-.558 1.1-.737 1.666-1.781 2.381-3.102l.206-.393c.325-.633.692-1.351 1.349-1.896.493-.409 1.046-.636 1.533-.836l1.088-.445.946-.387.673-.275.478.544c.29.331.951.971.951.971l.94.853 1.705 1.596 10.831 10.986.011.013a.073.073 0 0 1 .008.009l.058.063.106.116c.365.402.678.848.944 1.314a52.784 52.784 0 0 1 8.147-5.072c-2.85-4.938-6.36-11.072-8.639-15.212-4.056 1.372-6.504.177-8.535-1.372z" fill="#f5e6c8"/><path d="M46.93 73.602l.091-.142c.274-.367.713-1.098.57-1.864-.095-.514-.454-.977-1.066-1.377a1.435 1.435 0 0 0-.557-.124c-.388 0-.759.195-1.321.54a3.784 3.784 0 0 0-.796.689l-.012.012c-.227.268-.429.526-.614.789a7.334 7.334 0 0 0-.531.882c-.04.078-.08.156-.118.238-.202.594-.064 1.336.365 1.91.433.581 1.138 1.009 1.983 1.207a4.571 4.571 0 0 0 2.068-.011c.068-.016.138-.025.206-.044l-.226-.35c-.161-.251-.426-.669-.424-1.219 0-.011-.003-.021-.003-.033.009-.429.182-.762.326-1.005.02-.031.041-.068.059-.098z" fill="#f5e6c8"/><path d="M43.304 68.998c.393-.355.733-.66.907-.996.183-.355-.101-1.154-.542-1.528-.407-.346-.616-.45-1.074-.45-.104 0-.221.005-.358.015h-.007c-.2.013-.392.05-.577.103-.243.07-.465.174-.672.284a4.808 4.808 0 0 0-.643.411 7.232 7.232 0 0 0-.898.848c-.229.252-.446.516-.655.779-.039.049-.08.098-.118.147-.169.215-.337.439-.495.667a5.127 5.127 0 0 0-.504.869c-.219.502-.282.993-.18 1.387.096.374.358.751.617 1.104.204.277.423.563.664.731.357.25.9.337 1.417.397.156-.466.316-.875.484-1.248.003-.007.004-.015.006-.022.111-.301.256-.561.401-.803.063-.105.126-.214.187-.308.05-.077.108-.158.161-.237l.027-.04c.061-.091.121-.182.186-.274.191-.271.397-.541.629-.803.02-.023.045-.043.066-.066.024-.028.045-.055.07-.083.293-.338.602-.616.901-.884z" fill="#f5e6c8"/><path d="M92.767 23.871a1177.917 1177.917 0 0 0-7.316 3.863 3504.398 3504.398 0 0 0-10.76 5.752c-2.347 1.258-4.674 2.506-6.972 3.734l-.852.455-1.276.68.612 1.311c.23.492.631 1.267 1.153 2.239-3.107.96-4.77.003-6.313-1.174-2.724-2.079-5.673-2.65-8.522-1.653a7.71 7.71 0 0 0-1.425.685c-1.452-1.08-3.244-1.651-5.026-1.528-1.785.124-3.179.406-4.416.68l-.513.113c-2.051.464-3.803.852-6.676.367.285-.499.557-1.012.845-1.507l.797-1.37-1.398-.745c-.126-.067-8.794-4.673-17.2-8.761-3.792-1.842-7.532-3.58-10.409-4.749L5 21.41v36.856l.951.386c1.233.502 2.754 1.101 4.348 1.731 2.484.98 5.19 2.048 7.209 2.902.96.406 1.767.764 2.318 1.039l1.371.685 1.066-2.156c.712-1.44 1.435-2.895 2.157-4.348 1.008.715 2.146 1.528 3.209 2.295-.484.424-.801 1.047-.925 1.657a4.487 4.487 0 0 0 .533 3.142 4.483 4.483 0 0 0 2.504 1.969c.306.093.596.14.868.14.048 0 .092-.012.14-.015.1.898.41 1.906 1.141 2.554.927.82 2.602 1.308 3.582 1.501.017.099.023.2.048.296.187.722.586 1.306.946 1.798.291.396.644.849 1.137 1.195.84.588 1.816.693 2.599.779.076.008.182.02.306.02.128 0 .278-.023.433-.064.108.208.227.411.37.603.251.335.564.624.902.89l.063.048c.185.141.375.274.581.392.083.049.174.088.26.133.16.081.316.165.485.232.275.111.56.204.859.274.485.113.982.169 1.48.169a6.673 6.673 0 0 0 3.014-.73c.574.378 1.387.808 2.322.808.627 0 1.308-.194 2.005-.726.694-.529 1.095-1.291 1.162-2.204.009-.124.012-.25.008-.38.182.157.348.289.497.394 1.178.83 3.202.709 4.164-.251a3.282 3.282 0 0 0 .958-2.019c1.12.573 2.243.634 3.391-.201a3.111 3.111 0 0 0 1.29-2.245 3.881 3.881 0 0 0 0-.792 5.016 5.016 0 0 0 1.105.336c.046.008.093.018.138.024.154.021.304.032.448.034.062.001.12-.003.18-.005a3.746 3.746 0 0 0 .458-.043c.048-.008.094-.019.141-.028a3.62 3.62 0 0 0 1.263-.523c.674-.447 1.112-1.225 1.234-2.189.07-.566.024-1.174-.111-1.788a50.43 50.43 0 0 1 8.401-5.278 1078.39 1078.39 0 0 0 3.404 5.85l.651 1.106 1.202-.454c.687-.26 1.425-.507 2.185-.745 2.735-.859 5.812-1.582 8.353-2.143L95 64.058V22.704l-2.233 1.167zM31.13 64.899c-.102.219-.191.407-.298.541-.059.073-.168.212-.191.231 0 .004-.086.019-.302-.048a2.422 2.422 0 0 1-1.353-1.064 2.426 2.426 0 0 1-.288-1.699c.066-.326.231-.523.292-.553l.052-.005c.134-.032.501.117.643.228l1.938 1.496c-.223.298-.366.603-.493.873zm5.397 2.995c-.268.465-.505.944-.744 1.438l-.178.367c-.83-.191-1.906-.566-2.368-.974-.389-.344-.562-1.402-.474-2.138.053-.447.126-.577.273-.835l.114-.207.182-.329c.181-.324.354-.599.566-.855.055-.066.108-.133.17-.198.16-.166.398-.308.645-.445.083-.046.163-.094.247-.138.769-.408 1.563-.831 2.348-.9.71-.049 1.172.243 1.966 1.267.31.399.362.556.388.504-.126.309-.583.677-1.025 1.034-.292.236-.586.476-.847.731-.016.016-.028.033-.044.049a6.817 6.817 0 0 0-.663.771 9.291 9.291 0 0 0-.556.858zm5.809 2.072c-.021.023-.046.043-.066.066a9.174 9.174 0 0 0-.629.803c-.065.092-.125.183-.186.274a1.387 1.387 0 0 0-.027.04c-.052.079-.111.159-.161.237-.06.094-.124.204-.187.308-.146.242-.29.502-.401.803-.003.007-.004.015-.006.022-.168.373-.329.782-.484 1.248-.517-.061-1.061-.147-1.417-.397-.241-.168-.461-.454-.664-.731-.259-.354-.52-.73-.617-1.104-.102-.394-.039-.886.18-1.387.13-.3.309-.588.504-.869.158-.228.327-.452.495-.667.038-.049.079-.098.118-.147.209-.263.425-.527.655-.779.281-.309.579-.6.898-.848a4.86 4.86 0 0 1 .643-.411c.207-.11.429-.214.672-.284a2.66 2.66 0 0 1 .577-.103h.007c.136-.01.253-.015.358-.015.458 0 .666.104 1.074.45.441.374.725 1.174.542 1.528-.174.336-.513.642-.907.996a9.442 9.442 0 0 0-.899.885c-.027.027-.049.054-.072.082zm4.213 4.773c-.002.55.262.968.424 1.219l.226.35c-.068.019-.137.028-.206.044a4.57 4.57 0 0 1-2.068.011c-.845-.198-1.55-.626-1.983-1.207-.429-.574-.567-1.317-.365-1.91a7.466 7.466 0 0 1 .649-1.12c.184-.263.387-.521.614-.789l.012-.012c.241-.264.501-.508.796-.689.562-.346.933-.54 1.321-.54.176 0 .355.04.557.124.612.399.97.862 1.066 1.377.143.766-.296 1.497-.57 1.864l-.091.142-.058.1c-.144.243-.317.576-.326 1.005-.002.01.002.02.002.031zm21.152-7.218c-.046.362-.169.634-.339.746-1.313.87-3.019-.579-4.221-1.942l-.979-1.106a19.4 19.4 0 0 0-.441-.505l-.268-.299-.214-.236a140.927 140.927 0 0 1-2.948-3.4 1.02 1.02 0 0 0-1.57 1.303c1.06 1.283 2.075 2.42 2.999 3.45l.302.34.61.688c1.953 2.309 2.159 3.604 2.099 4.186a1.084 1.084 0 0 1-.466.813c-.916.669-2.035-.214-4.666-3.02-.565-.659-1.112-1.323-1.68-2.012-.312-.379-.897-1.078-1.362-1.63a1.02 1.02 0 0 0-1.569 1.307c.338.409.721.877.924 1.131.628.787 1.275 1.601 2 2.378l.18.193c.276.323.558.644.846.964.428.476 1.746 2.107.738 3.117-.228.228-1.132.325-1.554.027-.799-.564-2.663-2.595-3.896-3.94-.349-.38-.998-1.072-1.514-1.618a1.058 1.058 0 0 0-1.518-.021 1.055 1.055 0 0 0-.086 1.397c1.889 2.396 3.375 4.78 3.309 5.683-.024.332-.137.558-.366.734-.735.56-1.322.321-2.404-.466-.243-.176-.468-.354-.707-.53l-.255-.396a3.047 3.047 0 0 1-.07-.11l.068-.108c.796-1.085 1.118-2.295.911-3.414-.143-.765-.613-1.864-2.044-2.765l-.123-.066a3.61 3.61 0 0 0-1.161-.314c.144-1.174-.45-2.453-1.28-3.156-.906-.769-1.635-1.002-2.883-.915-.149.009-.298.041-.447.067l-.029.004c-.144-.608-.531-1.11-.741-1.38-.887-1.142-1.938-2.191-3.733-2.048l-.01.001c-1.2.103-2.227.65-3.133 1.131a7.41 7.41 0 0 0-.938.57c-.203-.167-.4-.334-.605-.501-.944-.774-4.57-3.378-7.13-5.19 2.582-5.17 5.264-10.351 8.079-15.391 3.691.751 5.809.274 8.175-.258l.066-.015c1.331-.299 2.71-.606 4.557-.733 1.036-.073 2.115.207 3.063.742l-.16.115a24.79 24.79 0 0 1-5.278 2.831c-.781.304-1.753.683-2.357 1.568-.416.612-.538 1.298-.637 1.85-.375 2.107-.645 3.628-1.619 5.821-.157.351-.483 1.08-.645 1.755l-.142.593.456.405c.517.459 1.726 1.024 2.759 1.317.226.064.439.113.639.146.031.005.061.012.091.016.202.029.389.045.539.03 1.191-.121 2.118-.414 2.836-.894 1.519-1.017 2.256-2.38 3.042-3.83.076-.141.15-.285.223-.428.258-.504.502-.979.838-1.258.252-.211.618-.36 1.004-.518l1.412-.579c.241.212.5.392.76.57 4.106 3.756 8.385 8.087 13.05 13.211a65.19 65.19 0 0 1 1.129 1.55c.414.832.557 1.655.484 2.242zm1.133-3.52a7.36 7.36 0 0 0-1.05-1.43l-.058-.063a.405.405 0 0 1-.019-.022l-10.83-10.985-1.705-1.596-.94-.853s-.661-.64-.951-.971l-.478-.544-.673.275-.946.388-1.088.445c-.488.201-1.041.427-1.533.836-.656.545-1.024 1.263-1.349 1.896l-.206.393c-.715 1.321-1.28 2.365-2.381 3.102-.435.29-1.06.474-1.881.558a1.12 1.12 0 0 1-.235-.036 4.039 4.039 0 0 1-.177-.043l-.074-.021a6.984 6.984 0 0 1-.229-.07l-.061-.02a9.991 9.991 0 0 1-1.195-.488c.112-.294.234-.567.312-.741 1.072-2.414 1.375-4.123 1.758-6.286.072-.398.145-.81.316-1.062.248-.364.841-.595 1.5-.852 1.99-.781 3.883-1.8 5.625-3.029l.521-.373.084-.06c.283-.204.561-.399.839-.583.294-.195.589-.375.889-.524.188-.093.377-.177.571-.244 2.208-.773 4.435-.317 6.618 1.349 2.031 1.549 4.479 2.744 8.534 1.369 2.279 4.14 5.789 10.274 8.639 15.212a52.963 52.963 0 0 0-8.147 5.073z" fill="#333"/><metadata xmlns:d="https://loading.io/stock/"><d:name>deal</d:name><d:tags>cowork,help,trade,agreement,contract,collaborate,deal,business</d:tags><d:license>pro</d:license><d:slug>57qfoa</d:slug></metadata></svg>